<svg width="23" height="26" viewBox="0 0 23 26" fill="none" xmlns="http://www.w3.org/2000/svg">
<path d="M4.88569 7.20438C4.88569 10.9734 7.84836 14.0497 11.4998 14.0497C15.1513 14.0497 18.114 10.9734 18.114 7.20438C18.114 3.43538 15.1513 0.359033 11.4998 0.359033C7.84836 0.359033 4.88569 3.43538 4.88569 7.20438ZM6.87199 7.20438C6.87199 4.5575 8.95697 2.40565 11.4998 2.40565C14.0427 2.40565 16.1277 4.55749 16.1277 7.20438C16.1277 9.85126 14.0427 12.0031 11.4998 12.0031C8.95697 12.0031 6.87199 9.85126 6.87199 7.20438ZM20.1637 24.6705C20.1637 25.2257 20.6082 25.6938 21.1569 25.6938C21.7055 25.6938 22.15 25.2257 22.15 24.6705C22.15 19.5952 17.3504 15.4963 11.5 15.4963C5.64962 15.4963 0.85 19.5952 0.85 24.6705C0.85 25.2257 1.29446 25.6938 1.84315 25.6938C2.39184 25.6938 2.8363 25.2257 2.8363 24.6705C2.8363 20.7618 6.69805 17.5429 11.5 17.5429C16.302 17.5429 20.1637 20.7618 20.1637 24.6705Z" fill="#292D32" stroke="#292D32" stroke-width="0.3"/>
</svg>
