<svg width="60" height="60" viewBox="0 0 60 60" fill="none" xmlns="http://www.w3.org/2000/svg">
<circle cx="30" cy="30" r="30" fill="white"/>
<path d="M42.2727 30.9632V29.0405C42.2727 22.4013 36.7672 17 30 17C23.2328 17 17.7273 22.4013 17.7273 29.0405V30.9632C16.0724 32.1848 15 34.1272 15 36.3108C15 39.9992 18.0585 43 21.8182 43C22.5713 43 23.1818 42.401 23.1818 41.6622V30.9595C23.1818 30.2207 22.5713 29.6217 21.8182 29.6217C21.3513 29.6217 20.8953 29.6681 20.4545 29.7563V29.0406C20.4545 23.8768 24.7366 19.6758 30 19.6758C35.2634 19.6758 39.5455 23.8768 39.5455 29.0406V29.7563C39.1047 29.6681 38.6487 29.6217 38.1818 29.6217C37.4287 29.6217 36.8182 30.2207 36.8182 30.9595V41.6622C36.8182 42.401 37.4287 43 38.1818 43C41.9414 43 45 39.9992 45 36.3108C45 34.1271 43.9276 32.1848 42.2727 30.9632Z" fill="#222222"/>
</svg>
