<svg width="27" height="18" viewBox="0 0 27 18" fill="none" xmlns="http://www.w3.org/2000/svg">
<path d="M13.2575 5.26946C11.2241 5.26946 9.56532 6.94104 9.56532 9C9.56532 11.0537 11.2185 12.7305 13.2575 12.7305C15.291 12.7305 16.9497 11.059 16.9497 9C16.9497 6.94635 15.291 5.26946 13.2575 5.26946Z" fill="#ACACAC"/>
<path d="M13.2575 14.8956C9.98413 14.8956 7.31692 12.2529 7.31692 9C7.31692 5.74705 9.98413 3.10436 13.2575 3.10436C16.5309 3.10436 19.1981 5.74705 19.1981 9C19.1981 12.2529 16.5309 14.8956 13.2575 14.8956ZM26.8305 8.42689C23.3147 2.99292 18.5754 0 13.5 0C8.42458 0 3.68532 2.99292 0.169456 8.42689C-0.0564854 8.77712 -0.0564854 9.22288 0.169456 9.57311C3.68532 15.0071 8.42458 18 13.5 18C18.5754 18 23.3092 15.0071 26.8305 9.57311C27.0565 9.22288 27.0565 8.77712 26.8305 8.42689Z" fill="#ACACAC"/>
</svg>
