<svg width="20" height="20" viewBox="0 0 24 24" fill="none" xmlns="http://www.w3.org/2000/svg">
<path d="M18.3236 24C17.7318 24 16.9725 23.8089 16.0234 23.2468L12.6847 21.2571C12.3386 21.0548 11.6686 21.0548 11.3336 21.2571L7.98383 23.2468C6.00745 24.4272 4.84618 23.955 4.32138 23.5728C3.80774 23.1906 3.00379 22.2126 3.52859 19.9644L4.32138 16.5133C4.41071 16.1536 4.23205 15.5354 3.96407 15.2656L1.1949 12.4778C-0.189691 11.0838 -0.0780305 9.89227 0.111792 9.30773C0.301614 8.72319 0.904579 7.68899 2.82513 7.363L6.38709 6.76721C6.72207 6.71101 7.20221 6.35129 7.34737 6.04777L9.32376 2.07963C10.217 0.269789 11.3895 0 12.0036 0C12.6177 0 13.7902 0.269789 14.6834 2.07963L16.6487 6.03653C16.805 6.34005 17.2851 6.69977 17.6201 6.75597L21.1821 7.35176C23.1138 7.67775 23.7168 8.71194 23.8954 9.29649C24.0741 9.88103 24.1857 11.0726 22.8123 12.4665L20.0431 15.2656C19.7752 15.5354 19.6077 16.1424 19.6858 16.5133L20.4786 19.9644C20.9922 22.2126 20.1995 23.1906 19.6858 23.5728C19.4067 23.7752 18.96 24 18.3236 24ZM12.0036 19.4136C12.5507 19.4136 13.0979 19.5485 13.5333 19.807L16.872 21.7967C17.8434 22.3813 18.4576 22.3813 18.692 22.2126C18.9265 22.044 19.094 21.4482 18.8484 20.3466L18.0556 16.8956C17.8434 15.9625 18.1896 14.7597 18.8595 14.074L21.6287 11.2862C22.1758 10.7354 22.4215 10.1958 22.3098 9.82483C22.187 9.45387 21.6734 9.15035 20.9141 9.0267L17.3521 8.43091C16.4923 8.28478 15.5544 7.58782 15.1636 6.80094L13.1984 2.84403C12.8411 2.12459 12.3944 1.69742 12.0036 1.69742C11.6128 1.69742 11.1661 2.12459 10.82 2.84403L8.84362 6.80094C8.45281 7.58782 7.51486 8.28478 6.65508 8.43091L3.10428 9.0267C2.345 9.15035 1.83136 9.45387 1.70853 9.82483C1.58571 10.1958 1.84252 10.7466 2.38966 11.2862L5.15883 14.074C5.82879 14.7485 6.17494 15.9625 5.96279 16.8956L5.17 20.3466C4.91318 21.4595 5.09184 22.044 5.32632 22.2126C5.56081 22.3813 6.16377 22.37 7.14638 21.7967L10.485 19.807C10.9093 19.5485 11.4565 19.4136 12.0036 19.4136Z" fill="#FFC72C"/>
<path d="M4.8 15.36C2.88 13.056 1.44 10.56 0.96 9.6L1.44 8.64L4.32 8.16L6.72 7.68L8.16 6.72L11.04 1.44H12.48L15.84 6.95471L23.04 9.6L18.72 15.84C19.872 22.368 18.56 23.36 17.76 23.04C16.48 21.92 13.632 19.776 12.48 20.16L5.28 22.56C1.92 18.72 7.2 18.24 4.8 15.36Z" fill="#FFC72C"/>
</svg>
